<?xml version="1.0" encoding="UTF-8" ?>
<!DOCTYPE svg PUBLIC "-//W3C//DTD SVG 1.1//EN" "http://www.w3.org/Graphics/SVG/1.1/DTD/svg11.dtd">
<svg width="522.75pt" height="108pt" viewBox="0 0 4581 944" version="1.1" xmlns="http://www.w3.org/2000/svg">
<g id="#ffffffff">
</g>
<g id="#ff0074ff">
<path fill="#ff0074" opacity="1.00" d=" M 22.50 19.50 C 227.02 19.49 431.53 19.50 636.05 19.50 C 657.45 19.54 678.87 19.40 700.28 19.57 C 700.12 92.45 700.48 165.34 700.08 238.22 C 699.94 243.05 699.95 247.88 700.08 252.71 C 700.46 325.55 700.15 398.40 700.25 471.24 C 700.25 502.81 700.25 534.38 700.25 565.95 C 700.19 577.52 700.45 589.09 699.92 600.65 C 696.83 667.61 673.26 733.44 632.96 787.02 C 597.19 834.95 548.55 873.19 493.43 896.44 C 430.39 923.31 359.11 929.92 292.07 916.04 C 223.59 902.00 159.97 865.81 112.60 814.44 C 86.42 786.23 65.12 753.51 49.90 718.16 C 32.61 678.10 23.32 634.65 22.49 591.04 C 22.52 400.53 22.48 210.02 22.50 19.50 Z" />
</g>
<g id="#005cffff">
<path fill="#005cff" opacity="1.00" d=" M 808.36 52.36 C 844.36 30.27 886.74 18.67 928.98 19.50 C 1076.32 19.50 1223.66 19.49 1371.00 19.50 C 1371.00 170.08 1371.01 320.67 1371.00 471.25 C 1301.46 471.34 1231.92 471.09 1162.39 471.37 C 1103.58 471.27 1044.77 471.36 985.96 471.33 C 961.18 471.17 936.39 471.65 911.61 471.07 C 880.44 468.85 849.65 460.60 821.93 446.08 C 787.83 428.41 758.37 401.89 737.27 369.79 C 714.28 335.23 701.40 294.17 700.08 252.71 C 699.95 247.88 699.94 243.05 700.08 238.22 C 701.28 199.90 712.32 161.92 732.15 129.09 C 750.87 97.87 777.25 71.28 808.36 52.36 Z" />
</g>
<g id="#000000ff">
<path fill="#000000" opacity="1.00" d=" M 1723.25 148.75 C 1883.08 148.75 2042.92 148.75 2202.76 148.75 C 2202.75 177.75 2202.76 206.75 2202.75 235.75 C 2137.94 235.73 2073.14 235.81 2008.34 235.71 C 2008.14 417.89 2008.31 600.07 2008.25 782.25 C 1978.08 782.25 1947.92 782.25 1917.75 782.25 C 1917.74 600.08 1917.75 417.92 1917.75 235.76 C 1852.92 235.75 1788.08 235.76 1723.25 235.75 C 1723.24 206.75 1723.25 177.75 1723.25 148.75 Z" />
<path fill="#000000" opacity="1.00" d=" M 3161.75 148.75 C 3192.00 148.75 3222.25 148.75 3252.50 148.75 C 3252.51 267.02 3252.49 385.30 3252.51 503.57 C 3318.89 438.53 3384.99 373.21 3451.40 308.22 C 3495.68 308.29 3539.96 308.20 3584.24 308.27 C 3525.75 365.10 3467.15 421.83 3408.63 478.64 C 3405.03 481.89 3401.83 485.55 3398.13 488.69 C 3464.10 586.51 3530.01 684.37 3595.97 782.21 C 3559.32 782.31 3522.67 782.22 3486.02 782.25 C 3434.73 705.77 3383.29 629.39 3332.02 552.89 C 3305.42 578.46 3279.09 604.31 3252.48 629.87 C 3252.51 680.67 3252.51 731.46 3252.49 782.25 C 3222.24 782.24 3192.00 782.26 3161.75 782.25 C 3161.75 571.08 3161.75 359.92 3161.75 148.75 Z" />
<path fill="#000000" opacity="1.00" d=" M 3646.22 148.81 C 3676.39 148.68 3706.57 148.78 3736.75 148.76 C 3736.75 287.50 3736.76 426.25 3736.75 565.00 C 3737.37 604.10 3755.59 642.37 3785.33 667.71 C 3815.23 693.79 3856.65 705.98 3895.90 700.11 C 3930.95 695.25 3963.69 676.23 3985.51 648.41 C 4005.27 623.57 4016.25 591.77 4015.50 559.99 C 4015.51 422.91 4015.47 285.83 4015.52 148.74 C 4045.76 148.76 4076.00 148.74 4106.25 148.75 C 4106.25 287.49 4106.27 426.22 4106.24 564.95 C 4105.69 606.67 4093.74 648.22 4071.58 683.60 C 4052.45 714.32 4026.00 740.44 3995.01 759.13 C 3958.52 781.23 3915.73 792.90 3873.07 792.00 C 3829.88 791.79 3786.92 778.61 3750.78 755.02 C 3719.87 734.96 3693.93 707.34 3675.81 675.26 C 3659.28 646.11 3649.31 613.28 3646.83 579.87 C 3645.84 568.61 3646.38 557.29 3646.25 546.01 C 3646.23 413.61 3646.28 281.21 3646.22 148.81 Z" />
<path fill="#000000" opacity="1.00" d=" M 2274.20 315.31 C 2307.06 301.10 2343.25 295.14 2378.95 296.97 C 2410.77 298.44 2442.48 305.79 2471.20 319.72 C 2494.16 330.74 2515.09 345.93 2532.71 364.32 C 2563.23 396.39 2583.92 436.97 2595.37 479.53 C 2601.63 503.48 2605.78 528.19 2605.25 553.01 C 2605.25 629.42 2605.26 705.83 2605.25 782.25 C 2575.91 782.25 2546.58 782.26 2517.25 782.24 C 2517.25 762.43 2517.24 742.62 2517.25 722.81 C 2487.85 756.66 2447.53 781.42 2403.39 790.16 C 2370.54 796.60 2336.30 794.18 2304.07 785.60 C 2250.33 771.19 2202.70 736.32 2171.84 690.14 C 2151.62 660.22 2138.21 625.80 2132.34 590.19 C 2125.79 550.30 2128.02 508.90 2139.40 470.09 C 2149.91 434.12 2168.47 400.45 2193.75 372.76 C 2216.06 348.16 2243.66 328.37 2274.20 315.31 M 2349.63 384.83 C 2320.85 388.37 2293.63 401.74 2272.47 421.44 C 2252.28 439.98 2237.35 463.96 2228.58 489.87 C 2215.89 527.80 2216.20 570.15 2230.50 607.59 C 2240.82 634.84 2258.45 659.43 2281.56 677.25 C 2306.53 696.72 2338.26 707.66 2369.99 706.55 C 2399.73 705.82 2428.74 694.41 2452.04 676.10 C 2471.24 661.04 2486.91 641.53 2497.58 619.59 C 2510.80 592.95 2516.43 562.70 2514.07 533.08 C 2510.19 482.01 2482.15 432.73 2438.58 405.30 C 2412.41 388.65 2380.50 380.74 2349.63 384.83 Z" />
<path fill="#000000" opacity="1.00" d=" M 2751.34 332.53 C 2787.36 306.91 2832.37 297.21 2875.97 296.74 C 2920.33 295.93 2966.17 304.59 3003.96 328.81 C 3032.37 346.79 3054.73 374.23 3066.06 405.93 C 3071.90 421.68 3074.82 438.32 3076.32 454.99 C 3045.95 455.01 3015.59 455.00 2985.24 455.00 C 2982.23 437.33 2974.37 420.18 2961.12 407.87 C 2944.93 392.56 2922.93 384.88 2901.11 382.32 C 2878.36 379.79 2854.95 381.26 2833.08 388.29 C 2819.40 392.80 2806.05 399.56 2796.03 410.12 C 2788.64 417.80 2783.57 428.20 2783.98 439.03 C 2783.95 446.63 2786.63 454.41 2792.32 459.63 C 2800.96 467.51 2812.32 471.37 2823.30 474.78 C 2865.23 486.98 2909.04 490.15 2951.57 499.65 C 2972.43 504.34 2993.18 510.21 3012.52 519.50 C 3028.96 527.33 3044.46 537.73 3056.52 551.51 C 3068.82 565.35 3077.19 582.46 3081.33 600.46 C 3090.16 639.96 3084.48 683.57 3061.67 717.52 C 3041.88 747.51 3010.61 768.44 2976.99 780.05 C 2952.88 788.48 2927.40 792.59 2901.92 793.55 C 2859.63 795.20 2816.36 788.62 2778.09 769.96 C 2744.85 753.98 2716.06 728.18 2698.28 695.70 C 2685.60 673.12 2678.82 647.65 2676.20 622.00 C 2706.70 622.03 2737.20 621.94 2767.70 622.04 C 2770.09 641.05 2778.46 659.40 2792.09 672.97 C 2802.82 684.24 2816.45 692.45 2830.87 698.10 C 2854.06 707.09 2879.36 709.67 2904.05 707.93 C 2924.64 706.46 2945.42 701.79 2963.43 691.37 C 2976.01 684.08 2987.23 673.59 2993.13 660.10 C 2997.95 649.26 2998.34 636.80 2995.41 625.41 C 2992.71 615.43 2984.89 607.73 2976.19 602.64 C 2962.35 594.45 2946.64 590.15 2931.14 586.37 C 2903.05 579.62 2874.21 577.13 2845.87 571.80 C 2822.33 567.42 2798.88 562.01 2776.46 553.49 C 2760.19 547.23 2744.38 539.25 2730.89 528.10 C 2717.01 516.76 2706.14 501.69 2700.22 484.74 C 2693.12 464.06 2691.62 441.55 2694.99 419.99 C 2700.71 384.67 2722.22 352.93 2751.34 332.53 Z" />
<path fill="#000000" opacity="1.00" d=" M 4263.10 313.16 C 4286.55 303.68 4311.69 298.89 4336.88 297.28 C 4380.22 294.69 4425.14 300.03 4464.30 319.77 C 4494.34 334.66 4520.00 358.92 4534.93 389.10 C 4545.43 409.51 4550.59 432.24 4552.53 455.01 C 4522.16 454.99 4491.79 455.01 4461.42 455.00 C 4458.49 438.23 4451.42 421.82 4439.16 409.77 C 4422.91 393.08 4399.82 384.96 4377.11 382.29 C 4354.65 379.84 4331.58 381.23 4309.97 388.07 C 4293.85 393.29 4277.88 401.66 4267.69 415.60 C 4260.73 424.91 4258.31 437.42 4261.61 448.60 C 4263.35 454.42 4267.40 459.34 4272.36 462.79 C 4281.11 469.01 4291.48 472.39 4301.68 475.44 C 4343.37 487.17 4386.81 490.39 4428.98 499.93 C 4449.83 504.64 4470.56 510.65 4489.84 520.04 C 4507.38 528.49 4523.68 540.08 4535.93 555.34 C 4548.49 570.81 4556.16 589.85 4559.31 609.44 C 4562.90 632.20 4562.09 655.78 4555.91 678.03 C 4550.49 697.63 4540.62 715.97 4527.34 731.38 C 4505.25 757.15 4474.43 774.26 4442.09 783.58 C 4418.39 790.49 4393.66 793.58 4369.01 793.76 C 4325.96 794.28 4282.07 785.82 4244.21 764.72 C 4213.23 747.60 4187.04 721.43 4171.29 689.60 C 4160.56 668.61 4154.80 645.39 4152.42 622.01 C 4182.89 621.98 4213.36 622.01 4243.83 622.00 C 4246.20 639.29 4253.09 656.10 4264.75 669.22 C 4277.89 684.47 4295.96 694.80 4314.97 700.93 C 4339.46 708.66 4365.67 710.02 4391.08 706.85 C 4411.86 704.09 4432.79 697.67 4449.55 684.67 C 4461.98 675.11 4471.77 661.02 4473.20 645.09 C 4474.15 633.29 4472.24 620.19 4463.58 611.43 C 4452.16 599.80 4436.17 594.47 4420.93 589.91 C 4397.68 583.26 4373.70 579.73 4349.80 576.38 C 4323.01 572.35 4296.27 567.43 4270.32 559.54 C 4251.99 553.91 4233.98 546.67 4217.90 536.10 C 4202.80 526.17 4189.64 512.81 4181.51 496.55 C 4172.89 479.78 4169.63 460.73 4169.48 442.01 C 4169.17 417.76 4176.15 393.53 4189.05 373.01 C 4206.13 345.44 4233.24 325.15 4263.10 313.16 Z" />
</g>
<g id="#ffd400ff">
<path fill="#ffd400" opacity="1.00" d=" M 700.25 471.24 C 770.70 471.14 841.17 471.48 911.61 471.07 C 936.39 471.65 961.18 471.17 985.96 471.33 C 1044.77 471.36 1103.58 471.27 1162.39 471.37 C 1200.68 473.03 1238.49 484.70 1271.02 504.99 C 1301.97 524.19 1328.17 550.97 1346.65 582.36 C 1367.58 617.70 1378.56 658.90 1377.76 699.98 C 1377.55 742.01 1364.91 783.83 1342.17 819.15 C 1323.96 847.54 1299.31 871.75 1270.63 889.48 C 1236.91 910.37 1197.60 922.12 1157.94 923.01 C 1005.29 922.99 852.65 923.01 700.00 923.00 C 699.94 815.55 700.11 708.10 699.92 600.65 C 700.45 589.09 700.19 577.52 700.25 565.95 C 700.25 534.38 700.25 502.81 700.25 471.24 Z" />
</g>
</svg>
